<mxfile host="Electron" agent="Mozilla/5.0 (X11; Linux x86_64) AppleWebKit/537.36 (KHTML, like Gecko) draw.io/28.2.5 Chrome/138.0.7204.251 Electron/37.6.1 Safari/537.36" version="28.2.5">
  <diagram name="第 1 页" id="A2wYnKDMZFF023bxGnZ8">
    <mxGraphModel dx="2852" dy="1576" grid="1" gridSize="10" guides="1" tooltips="1" connect="1" arrows="1" fold="1" page="1" pageScale="1" pageWidth="827" pageHeight="1169" math="0" shadow="0">
      <root>
        <mxCell id="0" />
        <mxCell id="1" parent="0" />
        <mxCell id="lc5mf7nCTQjh2SExQ85K-13" value="" style="rounded=0;whiteSpace=wrap;html=1;" parent="1" vertex="1">
          <mxGeometry x="70" y="40" width="1930" height="520" as="geometry" />
        </mxCell>
        <mxCell id="1i7iyDztXm2SfSE6uJK3-13" value="&lt;div&gt;RandomValuePropertySourceEnvironmentPostProcessor&lt;/div&gt;" style="html=1;whiteSpace=wrap;fontSize=20;verticalAlign=middle;align=center;fillColor=#ffe6cc;strokeColor=#d79b00;" parent="1" vertex="1">
          <mxGeometry x="580" y="320" width="520" height="51" as="geometry" />
        </mxCell>
        <mxCell id="1i7iyDztXm2SfSE6uJK3-25" value="DubboDefaultPropertiesEnvironmentPostProcessor" style="html=1;whiteSpace=wrap;fontSize=20;fillColor=#fff2cc;strokeColor=#d6b656;" parent="1" vertex="1">
          <mxGeometry x="90" y="320" width="470" height="50" as="geometry" />
        </mxCell>
        <mxCell id="mEVcy1A5f8fxIJjsYzMS-1" value="«interface»&lt;br&gt;EnvironmentPostProcessor" style="html=1;whiteSpace=wrap;fontSize=20;fontStyle=0;fillColor=#ffe6cc;strokeColor=#d79b00;" parent="1" vertex="1">
          <mxGeometry x="880" y="130" width="310" height="50" as="geometry" />
        </mxCell>
        <mxCell id="fyX_qp0nPDoWCMaDwxBh-1" value="spring-boot&lt;div&gt;&lt;div&gt;&lt;br&gt;&lt;/div&gt;&lt;/div&gt;" style="shape=module;align=left;spacingLeft=20;align=center;verticalAlign=top;whiteSpace=wrap;html=1;fontSize=20;fillColor=#ffe6cc;strokeColor=#d79b00;" parent="1" vertex="1">
          <mxGeometry x="1590" y="124" width="160" height="50" as="geometry" />
        </mxCell>
        <mxCell id="fyX_qp0nPDoWCMaDwxBh-2" value="&lt;div&gt;dubbo&lt;/div&gt;" style="shape=module;align=left;spacingLeft=20;align=center;verticalAlign=top;whiteSpace=wrap;html=1;fontSize=20;fillColor=#fff2cc;strokeColor=#d6b656;" parent="1" vertex="1">
          <mxGeometry x="1770" y="124" width="160" height="50" as="geometry" />
        </mxCell>
        <mxCell id="fyX_qp0nPDoWCMaDwxBh-4" value="&lt;div&gt;SystemEnvironmentPropertySourceEnvironmentPostProcessor&lt;/div&gt;" style="html=1;whiteSpace=wrap;fontSize=20;verticalAlign=middle;align=center;fillColor=#ffe6cc;strokeColor=#d79b00;" parent="1" vertex="1">
          <mxGeometry x="571" y="400" width="580" height="51" as="geometry" />
        </mxCell>
        <mxCell id="fyX_qp0nPDoWCMaDwxBh-5" value="&lt;div&gt;SpringApplicationJsonEnvironmentPostProcessor&lt;/div&gt;" style="html=1;whiteSpace=wrap;fontSize=20;verticalAlign=middle;align=center;fillColor=#ffe6cc;strokeColor=#d79b00;" parent="1" vertex="1">
          <mxGeometry x="90" y="400" width="460" height="51" as="geometry" />
        </mxCell>
        <mxCell id="fyX_qp0nPDoWCMaDwxBh-6" value="" style="endArrow=block;dashed=1;endFill=0;endSize=12;html=1;rounded=0;exitX=0.5;exitY=0;exitDx=0;exitDy=0;entryX=0.5;entryY=1;entryDx=0;entryDy=0;" parent="1" source="1i7iyDztXm2SfSE6uJK3-25" target="mEVcy1A5f8fxIJjsYzMS-1" edge="1">
          <mxGeometry width="160" relative="1" as="geometry">
            <mxPoint x="540" y="230" as="sourcePoint" />
            <mxPoint x="700" y="230" as="targetPoint" />
          </mxGeometry>
        </mxCell>
        <mxCell id="fyX_qp0nPDoWCMaDwxBh-7" value="" style="endArrow=block;dashed=1;endFill=0;endSize=12;html=1;rounded=0;exitX=0.5;exitY=0;exitDx=0;exitDy=0;entryX=0.5;entryY=1;entryDx=0;entryDy=0;" parent="1" source="1i7iyDztXm2SfSE6uJK3-13" target="mEVcy1A5f8fxIJjsYzMS-1" edge="1">
          <mxGeometry width="160" relative="1" as="geometry">
            <mxPoint x="860" y="280" as="sourcePoint" />
            <mxPoint x="1050" y="220" as="targetPoint" />
          </mxGeometry>
        </mxCell>
        <mxCell id="fyX_qp0nPDoWCMaDwxBh-8" value="" style="endArrow=block;dashed=1;endFill=0;endSize=12;html=1;rounded=0;exitX=0.5;exitY=0;exitDx=0;exitDy=0;entryX=0.5;entryY=1;entryDx=0;entryDy=0;" parent="1" source="fyX_qp0nPDoWCMaDwxBh-5" target="mEVcy1A5f8fxIJjsYzMS-1" edge="1">
          <mxGeometry width="160" relative="1" as="geometry">
            <mxPoint x="1140" y="270" as="sourcePoint" />
            <mxPoint x="1300" y="270" as="targetPoint" />
          </mxGeometry>
        </mxCell>
        <mxCell id="fyX_qp0nPDoWCMaDwxBh-9" value="" style="endArrow=block;dashed=1;endFill=0;endSize=12;html=1;rounded=0;exitX=0.5;exitY=0;exitDx=0;exitDy=0;entryX=0.5;entryY=1;entryDx=0;entryDy=0;" parent="1" source="fyX_qp0nPDoWCMaDwxBh-4" target="mEVcy1A5f8fxIJjsYzMS-1" edge="1">
          <mxGeometry width="160" relative="1" as="geometry">
            <mxPoint x="1210" y="250" as="sourcePoint" />
            <mxPoint x="1370" y="250" as="targetPoint" />
          </mxGeometry>
        </mxCell>
        <mxCell id="fyX_qp0nPDoWCMaDwxBh-10" value="&lt;div&gt;&lt;font style=&quot;color: rgb(255, 0, 0);&quot;&gt;ConfigDataEnvironmentPostProcessor加载配置&lt;/font&gt;&lt;/div&gt;" style="html=1;whiteSpace=wrap;fontSize=20;verticalAlign=middle;align=center;fillColor=#ffe6cc;strokeColor=#d79b00;" parent="1" vertex="1">
          <mxGeometry x="1120" y="320" width="360" height="51" as="geometry" />
        </mxCell>
        <mxCell id="fyX_qp0nPDoWCMaDwxBh-11" value="" style="endArrow=block;dashed=1;endFill=0;endSize=12;html=1;rounded=0;exitX=0.5;exitY=0;exitDx=0;exitDy=0;entryX=0.5;entryY=1;entryDx=0;entryDy=0;" parent="1" source="fyX_qp0nPDoWCMaDwxBh-10" target="mEVcy1A5f8fxIJjsYzMS-1" edge="1">
          <mxGeometry width="160" relative="1" as="geometry">
            <mxPoint x="1440" y="310" as="sourcePoint" />
            <mxPoint x="1600" y="310" as="targetPoint" />
          </mxGeometry>
        </mxCell>
        <mxCell id="fyX_qp0nPDoWCMaDwxBh-12" value="&lt;div&gt;CloudFoundryVcapEnvironmentPostProcessor&lt;/div&gt;" style="html=1;whiteSpace=wrap;fontSize=20;verticalAlign=middle;align=center;fillColor=#ffe6cc;strokeColor=#d79b00;" parent="1" vertex="1">
          <mxGeometry x="1500" y="320" width="450" height="51" as="geometry" />
        </mxCell>
        <mxCell id="fyX_qp0nPDoWCMaDwxBh-13" value="" style="endArrow=block;dashed=1;endFill=0;endSize=12;html=1;rounded=0;exitX=0.5;exitY=0;exitDx=0;exitDy=0;entryX=0.5;entryY=1;entryDx=0;entryDy=0;" parent="1" source="fyX_qp0nPDoWCMaDwxBh-12" target="mEVcy1A5f8fxIJjsYzMS-1" edge="1">
          <mxGeometry width="160" relative="1" as="geometry">
            <mxPoint x="1350" y="230" as="sourcePoint" />
            <mxPoint x="1510" y="230" as="targetPoint" />
          </mxGeometry>
        </mxCell>
        <mxCell id="fyX_qp0nPDoWCMaDwxBh-14" value="&lt;div&gt;ReactorEnvironmentPostProcessor&lt;/div&gt;" style="html=1;whiteSpace=wrap;fontSize=20;verticalAlign=middle;align=center;fillColor=#ffe6cc;strokeColor=#d79b00;" parent="1" vertex="1">
          <mxGeometry x="1180" y="400" width="330" height="51" as="geometry" />
        </mxCell>
        <mxCell id="fyX_qp0nPDoWCMaDwxBh-15" value="" style="endArrow=block;dashed=1;endFill=0;endSize=12;html=1;rounded=0;exitX=0.5;exitY=0;exitDx=0;exitDy=0;entryX=0.5;entryY=1;entryDx=0;entryDy=0;" parent="1" source="fyX_qp0nPDoWCMaDwxBh-14" target="mEVcy1A5f8fxIJjsYzMS-1" edge="1">
          <mxGeometry width="160" relative="1" as="geometry">
            <mxPoint x="1330" y="510" as="sourcePoint" />
            <mxPoint x="1490" y="510" as="targetPoint" />
          </mxGeometry>
        </mxCell>
        <mxCell id="fyX_qp0nPDoWCMaDwxBh-16" value="&lt;div&gt;IntegrationPropertiesEnvironmentPostProcessor&lt;/div&gt;" style="html=1;whiteSpace=wrap;fontSize=20;verticalAlign=middle;align=center;fillColor=#ffe6cc;strokeColor=#d79b00;" parent="1" vertex="1">
          <mxGeometry x="1540" y="400" width="450" height="51" as="geometry" />
        </mxCell>
        <mxCell id="fyX_qp0nPDoWCMaDwxBh-17" value="" style="endArrow=block;dashed=1;endFill=0;endSize=12;html=1;rounded=0;exitX=0.5;exitY=0;exitDx=0;exitDy=0;entryX=0.5;entryY=1;entryDx=0;entryDy=0;" parent="1" source="fyX_qp0nPDoWCMaDwxBh-16" target="mEVcy1A5f8fxIJjsYzMS-1" edge="1">
          <mxGeometry width="160" relative="1" as="geometry">
            <mxPoint x="1680" y="550" as="sourcePoint" />
            <mxPoint x="1840" y="550" as="targetPoint" />
          </mxGeometry>
        </mxCell>
        <mxCell id="fyX_qp0nPDoWCMaDwxBh-18" value="META-INF/spring.factories中加载的&lt;span style=&quot;&quot;&gt;EnvironmentPostProcessor&lt;/span&gt;实现" style="text;html=1;align=center;verticalAlign=middle;whiteSpace=wrap;rounded=0;fontSize=20;fontStyle=1" parent="1" vertex="1">
          <mxGeometry x="663.75" y="490" width="742.5" height="30" as="geometry" />
        </mxCell>
      </root>
    </mxGraphModel>
  </diagram>
</mxfile>
